<svg xmlns="http://www.w3.org/2000/svg" xmlns:xlink="http://www.w3.org/1999/xlink" width="1080" zoomAndPan="magnify" viewBox="0 0 810 809.999993" height="1080" preserveAspectRatio="xMidYMid meet" version="1.0"><path fill="#c9dbf2" d="M 613.34375 114.886719 C 661.703125 146.484375 691.027344 207.019531 704.734375 266.414062 C 718.441406 325.429688 716.539062 383.296875 707.398438 439.265625 C 698.640625 495.613281 683.027344 550.058594 651.421875 597.269531 C 619.816406 644.476562 572.980469 684.453125 517.382812 705.394531 C 461.40625 726.714844 397.433594 729 342.601562 708.820312 C 288.148438 688.261719 242.832031 645.238281 201.328125 598.03125 C 159.820312 551.199219 121.742188 500.5625 106.890625 442.3125 C 91.660156 384.058594 99.273438 318.195312 125.929688 261.464844 C 152.585938 204.738281 198.28125 157.144531 252.351562 128.210938 C 306.042969 99.273438 368.496094 88.996094 433.230469 85.1875 C 497.964844 81 564.984375 83.664062 613.34375 114.886719 Z M 613.34375 114.886719 " fill-opacity="1" fill-rule="nonzero"/></svg>